<svg xmlns="http://www.w3.org/2000/svg" xmlns:xlink="http://www.w3.org/1999/xlink" width="941.569" height="941" viewBox="0 0 941.569 941">
  <defs>
    <linearGradient id="linear-gradient" x1="0.528" y1="1" x2="0.345" y2="0.127" gradientUnits="objectBoundingBox">
      <stop offset="0" stop-color="#0b62a2"/>
      <stop offset="0.762" stop-color="#1bb9e9"/>
      <stop offset="0.829" stop-color="#1bb9e9"/>
    </linearGradient>
    <linearGradient id="linear-gradient-2" x1="0.472" x2="0.655" y2="0.127" xlink:href="#linear-gradient"/>
  </defs>
  <g id="Group_710" data-name="Group 710" transform="translate(-2988.98 -2835)">
    <rect id="Rectangle_389" data-name="Rectangle 389" width="941" height="941" transform="translate(2989.549 2835)" fill="none"/>
    <g id="final_logo" transform="translate(2988.98 2882.471)">
      <g id="Group_280" data-name="Group 280" transform="translate(0 0)">
        <path id="Path_704" data-name="Path 704" d="M869.894,43.05a179.731,179.731,0,0,0-190.67-27.113c-62.547,24.2-132.328,85.572-142.3,332.467C426.536,379.516,419.3,380.281,419.3,380.281l7.616-175s11.38-9.028,19.937-16.909a78.691,78.691,0,0,0,17.644-25.73,98.364,98.364,0,0,0,7.969-49.638,113.449,113.449,0,0,0-25.642-63.223,119.125,119.125,0,0,0-64.253-33.611,128.506,128.506,0,0,0-79.4,17.644A105.863,105.863,0,0,0,263.3,97.892a127.211,127.211,0,0,0,12.792,78.574,120.242,120.242,0,0,0,51.9,40.2l-9.028,192.7L172.407,443.475S18.877,465.559,2.88,606.062A217.018,217.018,0,0,0,19.23,730.215,212.431,212.431,0,0,0,164.056,843.047c78.221,14.086,215.048-18.173,233.133-150.678a1211.965,1211.965,0,0,0,14.056-206.755l113.42-32.964-8.822,259.334-3.294,99.981s-1.558,8.5,12.027,9.028,74.9,1.235,74.9,1.235a14.7,14.7,0,0,0,12.2-14.027c.206-1.441,1.823-42.286,3.94-97.041,4.293-111.391,10.557-280.3,10.557-280.3S827.431,398.807,899.653,316.5,943.174,95.217,869.894,43.05ZM303.706,670.256a86.837,86.837,0,0,1-88.866,79.1A103.922,103.922,0,0,1,101.273,622.912c10.116-68.9,61.488-71.339,95.217-80.485s115.39-29.406,115.39-29.406Zm495.936-394.72a714.564,714.564,0,0,1-161.293,55.578,1036.29,1036.29,0,0,1,24.7-159.794,91.159,91.159,0,0,1,104.98-68.6,84.4,84.4,0,0,1,57.136,36.2,110.008,110.008,0,0,1,17.644,53.255,81.014,81.014,0,0,1-43.256,83.455Z" transform="translate(-0.048 -0.007)" fill="#2eaee9"/>
      </g>
      <path id="Path_705" data-name="Path 705" d="M619.355,163.738c5.882-33.964-30.583-78.338-30.583-78.338l-79.9,60.254a111.247,111.247,0,0,1,13.35,19.437,128.7,128.7,0,0,1,11.439,44.757A80.46,80.46,0,0,1,514.756,271.6a442.33,442.33,0,0,0,54.255-34.757,168.369,168.369,0,0,0,50.344-73.1Z" transform="translate(309.511 -15.215)" fill-rule="evenodd" fill="url(#linear-gradient)"/>
      <path id="Path_706" data-name="Path 706" d="M0,81.073C6.381,57.372,24.76,0,24.76,0l86.69,60.489s-6.087,21.908-8.822,32.17a240.486,240.486,0,0,0-9.645,38.522,81.014,81.014,0,0,0,18.761,61.753,457.007,457.007,0,0,1-54.019-34.876A203.844,203.844,0,0,1,0,81.073Z" transform="translate(217.321 409.033) rotate(60)" fill-rule="evenodd" fill="url(#linear-gradient-2)"/>
    </g>
  </g>
</svg>
